<?xml version="1.0" encoding="utf-8"?>
<!-- Generator: Adobe Illustrator 28.2.0, SVG Export Plug-In . SVG Version: 6.00 Build 0)  -->
<svg version="1.1" id="Layer_1" xmlns="http://www.w3.org/2000/svg" xmlns:xlink="http://www.w3.org/1999/xlink" x="0px" y="0px"
	 viewBox="0 0 75 75" style="enable-background:new 0 0 75 75;" xml:space="preserve">
<style type="text/css">
	.st0{fill:#FFFFFF;}
</style>
<g>
	<g>
		<path class="st0" d="M28.8,27.13c-0.99,0-2.03,0.28-2.99,0.66c0.81-0.64,1.56-1.4,2.06-2.26c1.64-2.84,1.29-4.89-0.13-5.71
			c-1.42-0.82-3.37-0.1-5.01,2.74c-0.5,0.86-0.78,1.9-0.93,2.92c-0.15-1.02-0.43-2.06-0.93-2.92c-1.64-2.84-3.59-3.56-5.01-2.74
			c-1.43,0.82-1.77,2.87-0.13,5.71c0.5,0.86,1.26,1.62,2.07,2.27c-0.96-0.38-2-0.66-3-0.66c-3.28,0-4.88,1.33-4.88,2.97
			c0,1.64,1.6,2.97,4.88,2.97c1,0,2.03-0.27,3-0.66c-0.81,0.64-1.57,1.41-2.07,2.27c-1.64,2.84-1.29,4.9,0.14,5.71
			c1.42,0.82,3.37,0.1,5.01-2.74c0.5-0.86,0.78-1.9,0.93-2.92c0.15,1.02,0.43,2.06,0.93,2.92c1.64,2.84,3.59,3.57,5.01,2.75
			c1.42-0.82,1.77-2.87,0.13-5.71c-0.5-0.86-1.25-1.62-2.06-2.27c0.96,0.38,1.99,0.66,2.99,0.66c3.28,0,4.88-1.33,4.88-2.97
			C33.68,28.47,32.08,27.13,28.8,27.13z M22.99,32.16c-1.14,0.66-2.59,0.27-3.25-0.87c-0.66-1.14-0.27-2.59,0.87-3.24
			c1.14-0.66,2.59-0.27,3.24,0.87C24.51,30.05,24.13,31.51,22.99,32.16z"/>
		<path class="st0" d="M55.97,47.13c-1.29-0.34-2.73-0.35-4.1-0.19c1.27-0.55,2.51-1.27,3.46-2.21c3.11-3.11,3.37-5.89,1.81-7.44
			c-1.56-1.55-4.33-1.3-7.44,1.81c-0.94,0.94-1.66,2.19-2.21,3.46c0.16-1.38,0.16-2.81-0.19-4.11c-1.14-4.25-3.42-5.86-5.54-5.29
			c-2.12,0.57-3.29,3.1-2.15,7.35c0.34,1.29,1.06,2.54,1.89,3.65c-1.11-0.83-2.36-1.54-3.65-1.89c-4.25-1.14-6.78,0.03-7.35,2.16
			c-0.57,2.13,1.04,4.4,5.29,5.54c1.29,0.35,2.73,0.35,4.1,0.19c-1.28,0.55-2.52,1.27-3.46,2.21c-3.11,3.11-3.37,5.89-1.81,7.44
			c1.55,1.56,4.33,1.3,7.44-1.81c0.95-0.94,1.66-2.19,2.21-3.46c-0.16,1.38-0.16,2.81,0.19,4.11c1.14,4.25,3.41,5.86,5.54,5.29
			c2.12-0.57,3.29-3.11,2.15-7.35c-0.35-1.29-1.06-2.54-1.89-3.65c1.11,0.83,2.35,1.54,3.65,1.89c4.25,1.14,6.78-0.03,7.35-2.15
			C61.83,50.55,60.22,48.27,55.97,47.13z M46.71,51.62c-1.7,0.46-3.45-0.55-3.9-2.25c-0.46-1.7,0.55-3.45,2.25-3.9
			c1.7-0.46,3.44,0.55,3.9,2.25C49.41,49.42,48.41,51.17,46.71,51.62z"/>
		<path class="st0" d="M49.65,15.39c-0.43,0.55-0.73,1.26-0.94,1.96c-0.01-0.73-0.1-1.48-0.36-2.14c-0.87-2.15-2.17-2.86-3.25-2.42
			c-1.08,0.43-1.53,1.84-0.66,4c0.27,0.65,0.72,1.26,1.23,1.79c-0.63-0.36-1.34-0.66-2.04-0.76c-2.3-0.32-3.56,0.45-3.72,1.6
			c-0.16,1.15,0.83,2.24,3.13,2.56c0.7,0.1,1.45,0.01,2.17-0.16c-0.63,0.37-1.24,0.83-1.67,1.38c-1.43,1.83-1.39,3.31-0.47,4.02
			c0.92,0.72,2.36,0.41,3.79-1.43c0.43-0.56,0.73-1.25,0.94-1.96c0,0.73,0.1,1.49,0.36,2.14c0.87,2.15,2.17,2.85,3.25,2.42
			c1.08-0.43,1.53-1.84,0.66-4c-0.27-0.65-0.72-1.26-1.23-1.79c0.64,0.36,1.34,0.66,2.04,0.76c2.3,0.32,3.56-0.45,3.72-1.6
			c0.16-1.15-0.83-2.24-3.14-2.57c-0.7-0.1-1.45,0-2.16,0.17c0.63-0.37,1.24-0.83,1.67-1.38c1.43-1.83,1.39-3.31,0.47-4.02
			C52.52,13.24,51.08,13.55,49.65,15.39z M49.92,20.82c-0.13,0.92-0.98,1.56-1.9,1.43c-0.92-0.13-1.57-0.98-1.44-1.9
			c0.13-0.92,0.98-1.56,1.9-1.43C49.41,19.05,50.05,19.9,49.92,20.82z"/>
	</g>
</g>
</svg>
